{"title":"[OOTR] Naruto Shippuuden Episodes 16-32 Manga Edit  MP4","uid":7947670,"size":859939061,"categoryP":"video","categoryS":"tv_shows","magnet":"?xt=urn:btih:dc8065adaa44dab0cc356514550b2a416b008acd&amp;dn=%5BOOTR%5D+Naruto+Shippuuden+Episodes+16-32+Manga+Edit++MP4&amp;tr=udp%3A%2F%2Ftracker.openbittorrent.com%3A80&amp;tr=udp%3A%2F%2Fopen.demonii.com%3A1337&amp;tr=udp%3A%2F%2Ftracker.coppersurfer.tk%3A6969&amp;tr=udp%3A%2F%2Fexodus.desync.com%3A6969","seeders":1,"leechers":0,"uploader":"OOTR","files":1,"time":1356137738,"description":"\nEpisodes 16-32 of Naruto Shippuuden cut together so that it more accurately follows the manga.  \n\nSome parts might seem odd because they are &quot;out of anime&quot; order, where a scene in the manga may follow all at one time, that same scene could be broken up and otherwise presented in the anime timeline.  Some stuff isn't in the manga.  I tried to keep all the fun fight scenes cut in, even if they weren't detailed in the manga.  \n\nIn the same sense I tried to remove any extraneous back-story or flashbacks, because we've all seen the show and know the back-story...besides the fact that its already 4hrs long.  Some parts flow better in the anime presentation or there is too much missing to put together a decent manga version exactly.  \n\nSo while it does follow the manga more closely, MUCH MORE CLOSELY, than the original anime, sometimes its a mixed bag.  \n\nMake sure and watch after the credits for a &quot;secret scene&quot; hehe \n\nFormat                                   : MPEG-4\nCodec ID                                 : M4V \nFile size                                : 820 MiB\nDuration                                 : 3h 57mn\nOverall bit rate mode                    : Variable\nOverall bit rate                         : 483 Kbps\nEncoded date                             : UTC 2012-12-22 11:20:40\n\nVideo\nID                                       : 1\nFormat                                   : AVC\nFormat/Info                              : Advanced Video Codec\nFormat profile                           : &lt;a class=&quot;__cf_email__&quot; href=&quot;/cdn-cgi/l/email-protection&quot; data-cfemail=&quot;1557746670797c7b705559263b25&quot;&gt;[email&amp;#160;protected]&lt;/a&gt;&lt;script cf-hash='f9e31' type=&quot;text/javascript&quot;&gt;\n/* &lt;![CDATA[ */!function(){try{var t=&quot;currentScript&quot;in document?document.currentScript:function(){for(var t=document.getElementsByTagName(&quot;script&quot;),e=t.length;e--;)if(t[e].getAttribute(&quot;cf-hash&quot;))return t[e]}();if(t&amp;&amp;t.previousSibling){var e,r,n,i,c=t.previousSibling,a=c.getAttribute(&quot;data-cfemail&quot;);if(a){for(e=&quot;&quot;,r=parseInt(a.substr(0,2),16),n=2;a.length-n;n+=2)i=parseInt(a.substr(n,2),16)^r,e+=String.fromCharCode(i);e=document.createTextNode(e),c.parentNode.replaceChild(e,c)}}}catch(u){}}();/* ]]&gt; */&lt;/script&gt;\nFormat settings, CABAC                   : No\nFormat settings, ReFrames                : 2 frames\nFormat settings, GOP                     : M=1, N=72\nCodec ID                                 : avc1\nCodec ID/Info                            : Advanced Video Coding\nDuration                                 : 3h 57mn\nSource duration                          : 3h 57mn\nBit rate mode                            : Variable\nBit rate                                 : 355 Kbps\nWidth                                    : 640 pixels\nHeight                                   : 480 pixels\nDisplay aspect ratio                     : 4:3\nFrame rate mode                          : Variable\nFrame rate                               : 23.976 fps\nMinimum frame rate                       : 23.976 fps\nMaximum frame rate                       : 24.000 fps\nStandard                                 : NTSC\nColor space                              : YUV\nChroma subsampling                       : 4:2:0\nBit depth                                : 8 bits\nScan type                                : Progressive\nBits/(Pixel*Frame)                       : 0.048\nStream size                              : 603 MiB (74%)\nSource stream size                       : 603 MiB (74%)\nLanguage                                 : English\nEncoded date                             : UTC 2012-12-22 11:20:40\n\nAudio\nID                                       : 2\nFormat                                   : AAC\nFormat/Info                              : Advanced Audio Codec\nFormat profile                           : LC\nCodec ID                                 : 40\nDuration                                 : 3h 57mn\nSource duration                          : 3h 57mn\nBit rate mode                            : Variable\nBit rate                                 : 126 Kbps\nMaximum bit rate                         : 212 Kbps\nChannel(s)                               : 2 channels\nChannel positions                        : Front: L R\nSampling rate                            : 44.1 KHz\nCompression mode                         : Lossy\nStream size                              : 213 MiB (26%)","torrent":{"xt":"urn:btih:dc8065adaa44dab0cc356514550b2a416b008acd","amp;dn":"%5BOOTR%5D+Naruto+Shippuuden+Episodes+16-32+Manga+Edit++MP4","amp;tr":["udp%3A%2F%2Ftracker.openbittorrent.com%3A80","udp%3A%2F%2Fopen.demonii.com%3A1337","udp%3A%2F%2Ftracker.coppersurfer.tk%3A6969","udp%3A%2F%2Fexodus.desync.com%3A6969"],"infoHash":"dc8065adaa44dab0cc356514550b2a416b008acd","infoHashBuffer":{"type":"Buffer","data":[220,128,101,173,170,68,218,176,204,53,101,20,85,11,42,65,107,0,138,205]},"announce":[],"urlList":[]}}